<svg width="132" height="41" viewBox="0 0 132 41" fill="none" xmlns="http://www.w3.org/2000/svg">
<path d="M3 5C3 2.23858 5.23858 0 8 0H25C27.7614 0 30 2.23858 30 5V36H3V5Z" fill="#FF4D00"/>
<path d="M41.52 25.2C40.8133 25.2 40.18 25.0667 39.62 24.8C39.0733 24.52 38.64 24.1467 38.32 23.68C38.0133 23.2133 37.86 22.6867 37.86 22.1C37.86 21.38 38.0467 20.8133 38.42 20.4C38.7933 19.9733 39.4 19.6667 40.24 19.48C41.08 19.2933 42.2067 19.2 43.62 19.2H44.62V20.64H43.64C42.8133 20.64 42.1533 20.68 41.66 20.76C41.1667 20.84 40.8133 20.98 40.6 21.18C40.4 21.3667 40.3 21.6333 40.3 21.98C40.3 22.42 40.4533 22.78 40.76 23.06C41.0667 23.34 41.4933 23.48 42.04 23.48C42.48 23.48 42.8667 23.38 43.2 23.18C43.5467 22.9667 43.82 22.68 44.02 22.32C44.22 21.96 44.32 21.5467 44.32 21.08V18.78C44.32 18.1133 44.1733 17.6333 43.88 17.34C43.5867 17.0467 43.0933 16.9 42.4 16.9C42.0133 16.9 41.5933 16.9467 41.14 17.04C40.7 17.1333 40.2333 17.2933 39.74 17.52C39.4867 17.64 39.26 17.6733 39.06 17.62C38.8733 17.5667 38.7267 17.46 38.62 17.3C38.5133 17.1267 38.46 16.94 38.46 16.74C38.46 16.54 38.5133 16.3467 38.62 16.16C38.7267 15.96 38.9067 15.8133 39.16 15.72C39.7733 15.4667 40.36 15.2867 40.92 15.18C41.4933 15.0733 42.0133 15.02 42.48 15.02C43.44 15.02 44.2267 15.1667 44.84 15.46C45.4667 15.7533 45.9333 16.2 46.24 16.8C46.5467 17.3867 46.7 18.1467 46.7 19.08V23.88C46.7 24.2933 46.6 24.6133 46.4 24.84C46.2 25.0533 45.9133 25.16 45.54 25.16C45.1667 25.16 44.8733 25.0533 44.66 24.84C44.46 24.6133 44.36 24.2933 44.36 23.88V22.92H44.52C44.4267 23.3867 44.24 23.7933 43.96 24.14C43.6933 24.4733 43.3533 24.7333 42.94 24.92C42.5267 25.1067 42.0533 25.2 41.52 25.2ZM52.5775 25.2C51.4708 25.2 50.6375 24.8867 50.0775 24.26C49.5175 23.62 49.2375 22.6867 49.2375 21.46V12C49.2375 11.5867 49.3442 11.2733 49.5575 11.06C49.7708 10.8467 50.0775 10.74 50.4775 10.74C50.8775 10.74 51.1842 10.8467 51.3975 11.06C51.6242 11.2733 51.7375 11.5867 51.7375 12V21.34C51.7375 21.9533 51.8642 22.4067 52.1175 22.7C52.3842 22.9933 52.7575 23.14 53.2375 23.14C53.3442 23.14 53.4442 23.14 53.5375 23.14C53.6308 23.1267 53.7242 23.1133 53.8175 23.1C54.0042 23.0733 54.1308 23.1267 54.1975 23.26C54.2642 23.38 54.2975 23.6333 54.2975 24.02C54.2975 24.3533 54.2308 24.6133 54.0975 24.8C53.9642 24.9867 53.7442 25.1 53.4375 25.14C53.3042 25.1533 53.1642 25.1667 53.0175 25.18C52.8708 25.1933 52.7242 25.2 52.5775 25.2ZM58.9642 25.2C57.8576 25.2 57.0242 24.8867 56.4642 24.26C55.9042 23.62 55.6242 22.6867 55.6242 21.46V12C55.6242 11.5867 55.7309 11.2733 55.9442 11.06C56.1576 10.8467 56.4642 10.74 56.8642 10.74C57.2642 10.74 57.5709 10.8467 57.7842 11.06C58.0109 11.2733 58.1242 11.5867 58.1242 12V21.34C58.1242 21.9533 58.2509 22.4067 58.5042 22.7C58.7709 22.9933 59.1442 23.14 59.6242 23.14C59.7309 23.14 59.8309 23.14 59.9242 23.14C60.0176 23.1267 60.1109 23.1133 60.2042 23.1C60.3909 23.0733 60.5176 23.1267 60.5842 23.26C60.6509 23.38 60.6842 23.6333 60.6842 24.02C60.6842 24.3533 60.6176 24.6133 60.4842 24.8C60.3509 24.9867 60.1309 25.1 59.8242 25.14C59.6909 25.1533 59.5509 25.1667 59.4042 25.18C59.2576 25.1933 59.1109 25.2 58.9642 25.2ZM67.6509 25.2C66.8243 25.2 66.0976 24.9933 65.4709 24.58C64.8576 24.1667 64.4509 23.6133 64.2509 22.92L64.4709 22.42V23.88C64.4709 24.2933 64.3643 24.6133 64.1509 24.84C63.9376 25.0533 63.6376 25.16 63.2509 25.16C62.8509 25.16 62.5443 25.0533 62.3309 24.84C62.1176 24.6133 62.0109 24.2933 62.0109 23.88V12C62.0109 11.5867 62.1176 11.2733 62.3309 11.06C62.5443 10.8467 62.8509 10.74 63.2509 10.74C63.6509 10.74 63.9576 10.8467 64.1709 11.06C64.3976 11.2733 64.5109 11.5867 64.5109 12V17.2H64.2709C64.4843 16.5467 64.8976 16.02 65.5109 15.62C66.1243 15.22 66.8376 15.02 67.6509 15.02C68.5176 15.02 69.2709 15.2267 69.9109 15.64C70.5509 16.0533 71.0509 16.64 71.4109 17.4C71.7709 18.1467 71.9509 19.0467 71.9509 20.1C71.9509 21.14 71.7709 22.0467 71.4109 22.82C71.0509 23.58 70.5443 24.1667 69.8909 24.58C69.2509 24.9933 68.5043 25.2 67.6509 25.2ZM66.9509 23.3C67.4443 23.3 67.8776 23.18 68.2509 22.94C68.6243 22.7 68.9109 22.3467 69.1109 21.88C69.3243 21.4 69.4309 20.8067 69.4309 20.1C69.4309 19.0333 69.2043 18.24 68.7509 17.72C68.2976 17.1867 67.6976 16.92 66.9509 16.92C66.4576 16.92 66.0243 17.04 65.6509 17.28C65.2776 17.5067 64.9843 17.86 64.7709 18.34C64.5709 18.8067 64.4709 19.3933 64.4709 20.1C64.4709 21.1533 64.6976 21.9533 65.1509 22.5C65.6043 23.0333 66.2043 23.3 66.9509 23.3ZM78.4631 25.2C77.4498 25.2 76.5698 24.9933 75.8231 24.58C75.0765 24.1667 74.4965 23.58 74.0831 22.82C73.6698 22.0467 73.4631 21.14 73.4631 20.1C73.4631 19.3133 73.5765 18.6133 73.8031 18C74.0431 17.3733 74.3831 16.84 74.8231 16.4C75.2631 15.9467 75.7898 15.6067 76.4031 15.38C77.0165 15.14 77.7031 15.02 78.4631 15.02C79.4765 15.02 80.3565 15.2267 81.1031 15.64C81.8498 16.0533 82.4298 16.64 82.8431 17.4C83.2565 18.16 83.4631 19.06 83.4631 20.1C83.4631 20.8867 83.3431 21.5933 83.1031 22.22C82.8765 22.8467 82.5431 23.3867 82.1031 23.84C81.6631 24.28 81.1365 24.62 80.5231 24.86C79.9098 25.0867 79.2231 25.2 78.4631 25.2ZM78.4631 23.3C78.9565 23.3 79.3898 23.18 79.7631 22.94C80.1365 22.7 80.4231 22.3467 80.6231 21.88C80.8365 21.4 80.9431 20.8067 80.9431 20.1C80.9431 19.0333 80.7165 18.24 80.2631 17.72C79.8098 17.1867 79.2098 16.92 78.4631 16.92C77.9698 16.92 77.5365 17.04 77.1631 17.28C76.7898 17.5067 76.4965 17.86 76.2831 18.34C76.0831 18.8067 75.9831 19.3933 75.9831 20.1C75.9831 21.1533 76.2098 21.9533 76.6631 22.5C77.1165 23.0333 77.7165 23.3 78.4631 23.3ZM89.9866 25.2C88.9732 25.2 88.0932 24.9933 87.3466 24.58C86.5999 24.1667 86.0199 23.58 85.6066 22.82C85.1932 22.0467 84.9866 21.14 84.9866 20.1C84.9866 19.3133 85.0999 18.6133 85.3266 18C85.5666 17.3733 85.9066 16.84 86.3466 16.4C86.7866 15.9467 87.3132 15.6067 87.9266 15.38C88.5399 15.14 89.2266 15.02 89.9866 15.02C90.9999 15.02 91.8799 15.2267 92.6266 15.64C93.3732 16.0533 93.9532 16.64 94.3666 17.4C94.7799 18.16 94.9866 19.06 94.9866 20.1C94.9866 20.8867 94.8666 21.5933 94.6266 22.22C94.3999 22.8467 94.0666 23.3867 93.6266 23.84C93.1866 24.28 92.6599 24.62 92.0466 24.86C91.4332 25.0867 90.7466 25.2 89.9866 25.2ZM89.9866 23.3C90.4799 23.3 90.9132 23.18 91.2866 22.94C91.6599 22.7 91.9466 22.3467 92.1466 21.88C92.3599 21.4 92.4666 20.8067 92.4666 20.1C92.4666 19.0333 92.2399 18.24 91.7866 17.72C91.3332 17.1867 90.7332 16.92 89.9866 16.92C89.4932 16.92 89.0599 17.04 88.6866 17.28C88.3132 17.5067 88.0199 17.86 87.8066 18.34C87.6066 18.8067 87.5066 19.3933 87.5066 20.1C87.5066 21.1533 87.7332 21.9533 88.1866 22.5C88.6399 23.0333 89.2399 23.3 89.9866 23.3ZM98.29 25.16C97.89 25.16 97.5833 25.0533 97.37 24.84C97.1567 24.6133 97.05 24.2933 97.05 23.88V12C97.05 11.5867 97.1567 11.2733 97.37 11.06C97.5833 10.8467 97.89 10.74 98.29 10.74C98.69 10.74 98.9967 10.8467 99.21 11.06C99.4367 11.2733 99.55 11.5867 99.55 12V19.38H99.59L102.89 15.9C103.157 15.6333 103.39 15.4267 103.59 15.28C103.79 15.1333 104.063 15.06 104.41 15.06C104.757 15.06 105.017 15.1533 105.19 15.34C105.377 15.5133 105.47 15.7267 105.47 15.98C105.47 16.2333 105.35 16.4867 105.11 16.74L101.63 20.42V19.38L105.45 23.5C105.69 23.7533 105.797 24.0133 105.77 24.28C105.757 24.5333 105.65 24.7467 105.45 24.92C105.25 25.08 104.997 25.16 104.69 25.16C104.317 25.16 104.017 25.0867 103.79 24.94C103.577 24.7933 103.337 24.5733 103.07 24.28L99.59 20.64H99.55V23.88C99.55 24.7333 99.13 25.16 98.29 25.16ZM109.227 25.1C108.773 25.1 108.407 24.96 108.127 24.68C107.86 24.4 107.727 24.04 107.727 23.6C107.727 23.1733 107.86 22.8267 108.127 22.56C108.407 22.28 108.773 22.14 109.227 22.14C109.693 22.14 110.053 22.28 110.307 22.56C110.573 22.8267 110.707 23.1733 110.707 23.6C110.707 24.04 110.573 24.4 110.307 24.68C110.053 24.96 109.693 25.1 109.227 25.1ZM114.228 25.16C113.828 25.16 113.521 25.0533 113.308 24.84C113.094 24.6133 112.988 24.2933 112.988 23.88V12C112.988 11.5867 113.094 11.2733 113.308 11.06C113.521 10.8467 113.828 10.74 114.228 10.74C114.628 10.74 114.934 10.8467 115.148 11.06C115.374 11.2733 115.488 11.5867 115.488 12V19.38H115.528L118.828 15.9C119.094 15.6333 119.328 15.4267 119.528 15.28C119.728 15.1333 120.001 15.06 120.348 15.06C120.694 15.06 120.954 15.1533 121.128 15.34C121.314 15.5133 121.408 15.7267 121.408 15.98C121.408 16.2333 121.288 16.4867 121.048 16.74L117.567 20.42V19.38L121.388 23.5C121.628 23.7533 121.734 24.0133 121.708 24.28C121.694 24.5333 121.588 24.7467 121.388 24.92C121.188 25.08 120.934 25.16 120.628 25.16C120.254 25.16 119.954 25.0867 119.728 24.94C119.514 24.7933 119.274 24.5733 119.008 24.28L115.528 20.64H115.488V23.88C115.488 24.7333 115.068 25.16 114.228 25.16ZM124.213 25C123.959 25 123.746 24.94 123.573 24.82C123.413 24.6867 123.306 24.52 123.253 24.32C123.199 24.12 123.199 23.9067 123.253 23.68C123.319 23.44 123.446 23.2133 123.632 23L128.813 16.5V17.1H124.093C123.786 17.1 123.546 17.02 123.373 16.86C123.213 16.6867 123.133 16.4533 123.133 16.16C123.133 15.8533 123.213 15.62 123.373 15.46C123.546 15.3 123.786 15.22 124.093 15.22H130.013C130.306 15.22 130.546 15.2867 130.733 15.42C130.919 15.54 131.039 15.7 131.093 15.9C131.159 16.1 131.166 16.3133 131.113 16.54C131.059 16.7667 130.939 16.98 130.753 17.18L125.473 23.78V23.12H130.473C131.113 23.12 131.433 23.4333 131.433 24.06C131.433 24.3533 131.346 24.5867 131.173 24.76C131.013 24.92 130.779 25 130.473 25H124.213Z" fill="#FF4D00"/>
<path d="M17 22L31.7224 36.25H2.27757L17 22Z" fill="white"/>
</svg>
