<svg width="800" height="800" viewBox="0 0 800 800" fill="none" xmlns="http://www.w3.org/2000/svg">
<path opacity="0.1" fill-rule="evenodd" clip-rule="evenodd" d="M605.18 618.863L602.9 613.557C589.987 579.187 568.45 556.627 534.96 543.003C502.06 529.62 457.95 525 400.003 525C342.5 525 298.637 529.907 265.814 543.437C232.458 557.187 210.853 579.697 197.768 613.477L195.217 619.237C136.625 564.483 100 486.52 100 400C100 234.315 234.315 100 400 100C565.687 100 700 234.315 700 400C700 486.323 663.54 564.13 605.18 618.863ZM291.667 333.333C291.667 273.502 340.17 225 400 225C459.83 225 508.333 273.502 508.333 333.333C508.333 393.163 459.83 441.667 400 441.667C340.17 441.667 291.667 393.163 291.667 333.333Z" fill="#EE4E34"/>
<path d="M700 400C700 565.687 565.687 700 400 700C234.315 700 100 565.687 100 400C100 234.315 234.315 100 400 100C565.687 100 700 234.315 700 400Z" stroke="#EE4E34" stroke-width="66.6667"/>
<path d="M500 333.333C500 388.563 455.23 433.333 400 433.333C344.77 433.333 300 388.563 300 333.333C300 278.105 344.77 233.333 400 233.333C455.23 233.333 500 278.105 500 333.333Z" stroke="#EE4E34" stroke-width="66.6667"/>
<path d="M205.469 616.667C230.025 553.04 285.458 533.333 400.003 533.333C515.537 533.333 570.933 551.927 595.167 616.667" stroke="#EE4E34" stroke-width="66.6667" stroke-linecap="round"/>
</svg>
